<svg width="23" height="56" viewBox="0 0 23 56" fill="none" xmlns="http://www.w3.org/2000/svg">
<path d="M16.9802 10.2584C17.663 9.20665 18.0284 7.99265 18.0284 6.72903C18.0284 3.01859 14.8601 0 10.9657 0C7.07131 0 3.90301 3.01859 3.90301 6.72903C3.90301 8.00437 4.27454 9.22792 4.96826 10.2854C1.75045 11.5068 0.000408633 13.7533 0.000408633 16.7201V22.507C0.000408633 23.0418 0.455398 23.4754 1.01683 23.4754C1.57827 23.4754 2.03327 23.0418 2.03327 22.507V16.7201C2.03327 14.2274 3.67876 12.5403 6.92402 11.7061C7.27298 11.6162 7.54565 11.3568 7.64019 11.0244C7.73473 10.692 7.63681 10.3368 7.38321 10.0915C6.44996 9.189 5.93586 7.99484 5.93586 6.72903C5.93586 4.08659 8.19229 1.93679 10.9658 1.93679C13.7393 1.93679 15.9957 4.08659 15.9957 6.72903C15.9957 7.98672 15.487 9.17547 14.5634 10.0765C14.3107 10.323 14.2146 10.6788 14.3107 11.0108C14.407 11.3429 14.6812 11.6013 15.0308 11.6893C18.3191 12.5172 19.9864 14.2097 19.9864 16.7201V33.6872C19.9864 34.4264 19.355 35.028 18.5789 35.028C17.803 35.028 17.1716 34.4264 17.1716 33.6872V17.4632C17.1716 16.9284 16.7165 16.4948 16.1552 16.4948C15.5939 16.4948 15.1388 16.9284 15.1388 17.4632V52.1903C15.1388 53.0079 14.4406 53.6731 13.5824 53.6731C12.7242 53.6731 12.026 53.0079 12.026 52.1903V33.8846C12.026 33.3498 11.5711 32.9162 11.0096 32.9162C10.4482 32.9162 9.99319 33.3497 9.99319 33.8846V52.1903C9.99319 53.0079 9.29501 53.6731 8.43683 53.6731C7.57865 53.6731 6.88047 53.0079 6.88047 52.1903V17.4632C6.88047 16.9284 6.42534 16.4948 5.86404 16.4948C5.30274 16.4948 4.84761 16.9284 4.84761 17.4632V33.6872C4.84761 34.4264 4.21625 35.028 3.4403 35.028C2.66422 35.028 2.03286 34.4264 2.03286 33.6872V26.3804C2.03286 25.8457 1.57787 25.412 1.01643 25.412C0.454994 25.412 0 25.8457 0 26.3804V33.6872C0 35.4944 1.54324 36.9648 3.44017 36.9648C3.94128 36.9648 4.41778 36.8621 4.84748 36.6778V52.1903C4.84748 54.0758 6.45753 55.6098 8.43656 55.6098C9.4446 55.6098 10.3567 55.2118 11.0093 54.5723C11.6619 55.212 12.5741 55.6098 13.5821 55.6098C15.5612 55.6098 17.1712 54.0758 17.1712 52.1903V36.6778C17.6011 36.8621 18.0775 36.9648 18.5787 36.9648C20.4755 36.9648 22.0187 35.4944 22.0187 33.6872V16.7201C22.0191 13.73 20.2435 11.4738 16.9802 10.2584V10.2584Z" fill="black"/>
</svg>
