<svg class="circleButton__icon" width="7" height="12" viewBox="0 0 7 12" fill="none" baseProfile="full" xmlns="http://www.w3.org/2000/svg"><path d="M1 6L0.46967 5.46967C0.176777 5.76256 0.176777 6.23744 0.46967 6.53033L1 6ZM6.53033 1.53033C6.82322 1.23744 6.82322 0.762563 6.53033 0.46967C6.23744 0.176777 5.76256 0.176777 5.46967 0.46967L6.53033 1.53033ZM5.46967 11.5303C5.76256 11.8232 6.23744 11.8232 6.53033 11.5303C6.82322 11.2374 6.82322 10.7626 6.53033 10.4697L5.46967 11.5303ZM1.53033 6.53033L6.53033 1.53033L5.46967 0.46967L0.46967 5.46967L1.53033 6.53033ZM0.46967 6.53033L5.46967 11.5303L6.53033 10.4697L1.53033 5.46967L0.46967 6.53033Z" fill="#4A4A4A" /></svg>
