<svg width="21" height="43" viewBox="0 0 21 43" fill="none" xmlns="http://www.w3.org/2000/svg">
<path d="M15.8432 10.1406C16.4581 9.19344 16.7872 8.10018 16.7872 6.96223C16.7872 3.62092 13.934 0.902435 10.4268 0.902435C6.91967 0.902435 4.06647 3.62081 4.06647 6.96223C4.06647 8.11074 4.40106 9.21259 5.02578 10.1649C2.12799 11.2649 0.552002 13.2879 0.552002 15.9596V27.0534C0.552002 28.6809 1.94176 30.0049 3.65003 30.0049C4.1013 30.0049 4.53041 29.9125 4.9175 29.7464V39.5304C4.9175 41.2283 6.36742 42.6098 8.14962 42.6098C9.05729 42.6098 9.87884 42.2514 10.4664 41.6755C11.0541 42.2514 11.8757 42.6098 12.7833 42.6098C14.5655 42.6098 16.0155 41.2283 16.0155 39.5304V36.5423C16.0155 36.0607 15.6057 35.6702 15.1001 35.6702C14.5946 35.6702 14.1848 36.0606 14.1848 36.5423V39.5304C14.1848 40.2667 13.556 40.8657 12.7832 40.8657C12.0104 40.8657 11.3816 40.2667 11.3816 39.5304V27.2311C11.3816 26.7495 10.9718 26.359 10.4663 26.359C9.96081 26.359 9.55095 26.7495 9.55095 27.2311V39.5304C9.55095 40.2667 8.92221 40.8657 8.14938 40.8657C7.37655 40.8657 6.74781 40.2667 6.74781 39.5304V16.6287C6.74781 16.1471 6.33807 15.7566 5.83247 15.7566C5.32699 15.7566 4.91713 16.1471 4.91713 16.6287V27.0532C4.91713 27.719 4.34856 28.2607 3.64966 28.2607C2.95076 28.2607 2.38219 27.719 2.38219 27.0532V15.9596C2.38219 13.7148 3.86403 12.1955 6.78654 11.4443C7.10079 11.3634 7.34634 11.1298 7.43148 10.8304C7.51662 10.5311 7.42856 10.2112 7.20006 9.99033C6.3595 9.17754 5.89666 8.10215 5.89666 6.96223C5.89666 4.5826 7.92867 2.6466 10.4263 2.6466C12.924 2.6466 14.956 4.5826 14.956 6.96223C14.956 8.09484 14.4979 9.16536 13.6661 9.97675C13.4386 10.1987 13.3519 10.5191 13.4386 10.8182C13.5253 11.1172 13.7722 11.3499 14.0871 11.4292C17.0483 12.1748 18.5498 13.6989 18.5498 15.9596V27.0534C18.5498 27.7191 17.9812 28.2608 17.2823 28.2608C16.5834 28.2608 16.0148 27.7191 16.0148 27.0534V16.6288C16.0148 16.1473 15.6051 15.7568 15.0995 15.7568C14.594 15.7568 14.1842 16.1473 14.1842 16.6288V33.0542C14.1842 33.5358 14.594 33.9263 15.0995 33.9263C15.605 33.9263 16.0148 33.5359 16.0148 33.0542V29.7465C16.4019 29.9125 16.831 30.005 17.2823 30.005C18.9906 30.005 20.3803 28.6809 20.3803 27.0535V15.9596C20.3809 13.2669 18.7819 11.2352 15.8432 10.1406V10.1406Z" fill="black"/>
</svg>
