<svg width="17" height="28" viewBox="0 0 17 28" fill="none" xmlns="http://www.w3.org/2000/svg">
<path d="M13.1361 7.66366C13.6075 6.90779 13.8592 6.04258 13.8592 5.14333C13.8592 2.41485 11.5293 0.195099 8.6655 0.195099C5.80169 0.195099 3.47184 2.41485 3.47184 5.14333C3.47184 6.05135 3.72788 6.92357 4.20717 7.68388C1.89897 8.58715 0.644836 10.2249 0.644836 12.381V13.638C0.644836 14.0661 1.00915 14.4132 1.45844 14.4132C1.90774 14.4132 2.27205 14.0661 2.27205 13.638V12.381C2.27205 10.6128 3.44488 9.4146 5.75784 8.81985C6.03717 8.74795 6.25543 8.54021 6.33111 8.27419C6.40678 8.00817 6.32851 7.72379 6.1254 7.5275C5.46369 6.88757 5.09927 6.04093 5.09927 5.14333C5.09927 3.26975 6.6992 1.74542 8.66572 1.74542C10.6322 1.74542 12.2322 3.26975 12.2322 5.14333C12.2322 6.03505 11.8715 6.87808 11.2165 7.51677C11.0143 7.71399 10.9373 7.99889 11.0143 8.2647C11.0913 8.53052 11.3108 8.73733 11.5906 8.80778C13.9345 9.398 15.1229 10.6002 15.1229 12.3809V17.9378C15.1229 18.4328 14.7003 18.8355 14.1807 18.8355C13.6612 18.8355 13.2385 18.4328 13.2385 17.9378V15.1882V12.9194C13.2385 12.4913 12.8742 12.1442 12.4249 12.1442C11.9756 12.1442 11.6113 12.4913 11.6113 12.9194V14.4131H5.78361V12.9194C5.78361 12.4913 5.4193 12.1442 4.97 12.1442C4.52071 12.1442 4.1564 12.4913 4.1564 12.9194V15.1882V17.9378C4.1564 18.4328 3.73373 18.8355 3.21417 18.8355C2.69461 18.8355 2.27194 18.4328 2.27194 17.9378V16.7384C2.27194 16.3104 1.90763 15.9633 1.45834 15.9633C1.00904 15.9633 0.644836 16.3105 0.644836 16.7385V17.9379C0.644836 19.2877 1.79742 20.3858 3.21417 20.3858C3.54665 20.3858 3.86451 20.3253 4.1564 20.2153V25.4492C4.1564 26.8556 5.35748 28 6.83367 28C7.55742 28 8.21502 27.725 8.69744 27.2788C9.17976 27.725 9.83736 28 10.5611 28C12.0374 28 13.2384 26.8556 13.2384 25.4492V20.2153C13.5303 20.3252 13.8481 20.3858 14.1806 20.3858C15.5974 20.3858 16.7499 19.2877 16.7499 17.9379V12.381C16.75 10.2077 15.4776 8.5627 13.1361 7.66366V7.66366ZM11.6114 15.9634V17.168C10.3327 18.4222 9.1528 18.9894 8.69755 18.9894C8.24219 18.9894 7.06222 18.4221 5.78372 17.168V15.9634H11.6114ZM6.83367 26.4499C6.25467 26.4499 5.7835 26.0011 5.7835 25.4493V19.2553C6.40104 19.7261 7.14515 20.1925 7.88383 20.4109V25.4493C7.88394 26.001 7.41278 26.4499 6.83367 26.4499V26.4499ZM10.5611 26.4499C9.98211 26.4499 9.51094 26.0011 9.51094 25.4493V20.4109C10.2496 20.1925 10.9937 19.7261 11.6113 19.2553V25.4493C11.6114 26.001 11.1402 26.4499 10.5611 26.4499V26.4499Z" fill="black"/>
</svg>
